# xmcd
#
# Track frame offsets: 
#        182
#        37157
#        66867
#        67895
#        83132
#        122175
#        140357
#        160382
#        185207
#        200882
#        215957
#        221810
#        228782
#        246182
#
# Disc length: 3651 seconds
#
# Revision: 4
# Processed by: cddbd v1.5.2PL0 Copyright (c) Steve Scherf et al.
# Submitted via: ExactAudioCopy v0.99pb4
#
DISCID=e30e410e
DTITLE=Johann Sebastian Bach - Best of the Classics
DYEAR=1900
DGENRE=Classical
TTITLE0=Toccata and Fugue in D minor
TTITLE1=Brandenburg Concerto No. 3 in G major - Allegro moderato
TTITLE2=Brandenburg Concerto No. 3 in G major - Adagio (Cadence)
TTITLE3=Brandenburg Concerto No. 3 in G major - Adagio
TTITLE4=Concerto for Harpsichord and Orchestra No. 1 in D minor - Alle
TTITLE4=gro
TTITLE5=Concerto for 2 Violins and Orchestra in D minor - Vivace
TTITLE6=Italian Concerto in F major - (without indication)
TTITLE7=Italian Concerto in F major - Andante
TTITLE8=Italian Concerto in F major - Presto
TTITLE9=Overtures - Suites for Orchestra  - No. 3 in D major - Air
TTITLE10=Overtures - Suites for Orchestra  - No. 2 in B minor - Menuet
TTITLE11=Overtures - Suites for Orchestra  - No. 2 in B minor - Badine
TTITLE11=rie
TTITLE12=Chromatic Fantasy in D minor - Fantasia
TTITLE13=Christmas Oratorium - Sinfonia in G major
EXTD=
EXTT0=
EXTT1=
EXTT2=
EXTT3=
EXTT4=
EXTT5=
EXTT6=
EXTT7=
EXTT8=
EXTT9=
EXTT10=
EXTT11=
EXTT12=
EXTT13=
PLAYORDER=
